<mxfile host="Electron" modified="2024-06-20T17:23:24.993Z" agent="Mozilla/5.0 (X11; Linux x86_64) AppleWebKit/537.36 (KHTML, like Gecko) draw.io/24.5.3 Chrome/124.0.6367.207 Electron/30.0.6 Safari/537.36" etag="Iuvfhe2TTWStk9ix8pTT" version="24.5.3" type="device">
  <diagram name="Page-1" id="gueMG8umtPMcZepkntxJ">
    <mxGraphModel dx="1434" dy="1027" grid="1" gridSize="10" guides="1" tooltips="1" connect="1" arrows="1" fold="1" page="1" pageScale="1" pageWidth="850" pageHeight="1100" math="0" shadow="0">
      <root>
        <mxCell id="0" />
        <mxCell id="1" parent="0" />
        <mxCell id="AlQtFBsShf_o3_MpF2e9-13" value="" style="rounded=0;whiteSpace=wrap;html=1;" parent="1" vertex="1">
          <mxGeometry x="26.27" y="60" width="770" height="470" as="geometry" />
        </mxCell>
        <mxCell id="AlQtFBsShf_o3_MpF2e9-14" value="" style="rounded=0;whiteSpace=wrap;html=1;" parent="1" vertex="1">
          <mxGeometry x="26.27" y="130" width="180" height="400" as="geometry" />
        </mxCell>
        <mxCell id="AlQtFBsShf_o3_MpF2e9-18" value="Today" style="rounded=0;whiteSpace=wrap;html=1;" parent="1" vertex="1">
          <mxGeometry x="26.27" y="160" width="180" height="30" as="geometry" />
        </mxCell>
        <mxCell id="AlQtFBsShf_o3_MpF2e9-19" value="Tomorrow" style="rounded=0;whiteSpace=wrap;html=1;" parent="1" vertex="1">
          <mxGeometry x="26.27" y="190" width="180" height="30" as="geometry" />
        </mxCell>
        <mxCell id="AlQtFBsShf_o3_MpF2e9-21" value="" style="rounded=0;whiteSpace=wrap;html=1;" parent="1" vertex="1">
          <mxGeometry x="206.27" y="130" width="590" height="400" as="geometry" />
        </mxCell>
        <mxCell id="AlQtFBsShf_o3_MpF2e9-22" value="list of events in the form of a table/list" style="rounded=0;whiteSpace=wrap;html=1;" parent="1" vertex="1">
          <mxGeometry x="226.27" y="150" width="540" height="190" as="geometry" />
        </mxCell>
        <mxCell id="AlQtFBsShf_o3_MpF2e9-24" value="" style="rounded=0;whiteSpace=wrap;html=1;" parent="1" vertex="1">
          <mxGeometry x="26.27" y="90" width="770" height="40" as="geometry" />
        </mxCell>
        <mxCell id="AlQtFBsShf_o3_MpF2e9-25" value="Please, enter the date" style="rounded=0;whiteSpace=wrap;html=1;" parent="1" vertex="1">
          <mxGeometry x="586.27" y="360" width="180" height="30" as="geometry" />
        </mxCell>
        <mxCell id="AlQtFBsShf_o3_MpF2e9-26" value="All events" style="rounded=0;whiteSpace=wrap;html=1;" parent="1" vertex="1">
          <mxGeometry x="26.27" y="130" width="180" height="30" as="geometry" />
        </mxCell>
        <mxCell id="AlQtFBsShf_o3_MpF2e9-28" value="File" style="rounded=0;whiteSpace=wrap;html=1;" parent="1" vertex="1">
          <mxGeometry x="26.27" y="60" width="80" height="30" as="geometry" />
        </mxCell>
        <mxCell id="AlQtFBsShf_o3_MpF2e9-30" value="" style="rounded=0;whiteSpace=wrap;html=1;" parent="1" vertex="1">
          <mxGeometry x="36.05" y="1140" width="770" height="510" as="geometry" />
        </mxCell>
        <mxCell id="AlQtFBsShf_o3_MpF2e9-31" value="Edit event" style="rounded=0;whiteSpace=wrap;html=1;" parent="1" vertex="1">
          <mxGeometry x="35" y="1140" width="770" height="20" as="geometry" />
        </mxCell>
        <mxCell id="AlQtFBsShf_o3_MpF2e9-34" value="Choose by category: (Combobox)" style="rounded=0;whiteSpace=wrap;html=1;" parent="1" vertex="1">
          <mxGeometry x="246.27" y="360" width="120" height="60" as="geometry" />
        </mxCell>
        <mxCell id="AlQtFBsShf_o3_MpF2e9-35" value="&lt;div&gt;Events overlap. Do you want to save changes?&lt;/div&gt;" style="rounded=0;whiteSpace=wrap;html=1;" parent="1" vertex="1">
          <mxGeometry x="235" y="590" width="350" height="160" as="geometry" />
        </mxCell>
        <mxCell id="AlQtFBsShf_o3_MpF2e9-37" value="Yes" style="rounded=0;whiteSpace=wrap;html=1;" parent="1" vertex="1">
          <mxGeometry x="293.73" y="700" width="100" height="30" as="geometry" />
        </mxCell>
        <mxCell id="AlQtFBsShf_o3_MpF2e9-38" value="No" style="rounded=0;whiteSpace=wrap;html=1;" parent="1" vertex="1">
          <mxGeometry x="423.73" y="700" width="90" height="30" as="geometry" />
        </mxCell>
        <mxCell id="AlQtFBsShf_o3_MpF2e9-40" value="some stats here&lt;div&gt;&lt;br&gt;&lt;/div&gt;" style="rounded=0;whiteSpace=wrap;html=1;" parent="1" vertex="1">
          <mxGeometry x="35" y="780" width="760" height="320" as="geometry" />
        </mxCell>
        <mxCell id="AlQtFBsShf_o3_MpF2e9-41" value="" style="rounded=0;whiteSpace=wrap;html=1;" parent="1" vertex="1">
          <mxGeometry x="35" y="780" width="760" height="40" as="geometry" />
        </mxCell>
        <mxCell id="AlQtFBsShf_o3_MpF2e9-43" value="get from file" style="rounded=0;whiteSpace=wrap;html=1;" parent="1" vertex="1">
          <mxGeometry x="626.27" y="460" width="120" height="30" as="geometry" />
        </mxCell>
        <mxCell id="AlQtFBsShf_o3_MpF2e9-44" value="save event" style="rounded=0;whiteSpace=wrap;html=1;" parent="1" vertex="1">
          <mxGeometry x="605" y="1040" width="110" height="30" as="geometry" />
        </mxCell>
        <mxCell id="AlQtFBsShf_o3_MpF2e9-45" value="Main" style="rounded=0;whiteSpace=wrap;html=1;" parent="1" vertex="1">
          <mxGeometry x="26.27" y="90" width="100" height="40" as="geometry" />
        </mxCell>
        <mxCell id="AlQtFBsShf_o3_MpF2e9-46" value="Upcoming events" style="rounded=0;whiteSpace=wrap;html=1;" parent="1" vertex="1">
          <mxGeometry x="126.27" y="90" width="120" height="40" as="geometry" />
        </mxCell>
        <mxCell id="AlQtFBsShf_o3_MpF2e9-47" value="Stats" style="rounded=0;whiteSpace=wrap;html=1;" parent="1" vertex="1">
          <mxGeometry x="246.27" y="90" width="110" height="40" as="geometry" />
        </mxCell>
        <mxCell id="x41GZVK5b2NqUwbjTkxP-3" value="" style="rounded=0;whiteSpace=wrap;html=1;" parent="1" vertex="1">
          <mxGeometry x="65" y="1190" width="700" height="30" as="geometry" />
        </mxCell>
        <mxCell id="x41GZVK5b2NqUwbjTkxP-4" value="Event name:" style="text;html=1;align=center;verticalAlign=middle;whiteSpace=wrap;rounded=0;" parent="1" vertex="1">
          <mxGeometry x="65" y="1160" width="80" height="30" as="geometry" />
        </mxCell>
        <mxCell id="x41GZVK5b2NqUwbjTkxP-5" value="Delete event" style="rounded=0;whiteSpace=wrap;html=1;" parent="1" vertex="1">
          <mxGeometry x="635" y="1610" width="80" height="30" as="geometry" />
        </mxCell>
        <mxCell id="x41GZVK5b2NqUwbjTkxP-6" value="Confirm changes" style="rounded=0;whiteSpace=wrap;html=1;" parent="1" vertex="1">
          <mxGeometry x="120.28999999999999" y="1610" width="120" height="30" as="geometry" />
        </mxCell>
        <mxCell id="x41GZVK5b2NqUwbjTkxP-9" value="Date:" style="text;html=1;align=center;verticalAlign=middle;whiteSpace=wrap;rounded=0;" parent="1" vertex="1">
          <mxGeometry x="65" y="1220" width="60" height="30" as="geometry" />
        </mxCell>
        <mxCell id="x41GZVK5b2NqUwbjTkxP-10" value="Time:" style="text;html=1;align=center;verticalAlign=middle;whiteSpace=wrap;rounded=0;" parent="1" vertex="1">
          <mxGeometry x="65" y="1280" width="60" height="30" as="geometry" />
        </mxCell>
        <mxCell id="x41GZVK5b2NqUwbjTkxP-11" value="Duration:" style="text;html=1;align=center;verticalAlign=middle;whiteSpace=wrap;rounded=0;" parent="1" vertex="1">
          <mxGeometry x="66.27000000000001" y="1350" width="60" height="30" as="geometry" />
        </mxCell>
        <mxCell id="x41GZVK5b2NqUwbjTkxP-12" value="" style="rounded=0;whiteSpace=wrap;html=1;" parent="1" vertex="1">
          <mxGeometry x="65" y="1250" width="190" height="30" as="geometry" />
        </mxCell>
        <mxCell id="x41GZVK5b2NqUwbjTkxP-15" value="" style="endArrow=none;html=1;rounded=0;entryX=0.25;entryY=0;entryDx=0;entryDy=0;exitX=0.25;exitY=1;exitDx=0;exitDy=0;" parent="1" source="x41GZVK5b2NqUwbjTkxP-12" target="x41GZVK5b2NqUwbjTkxP-12" edge="1">
          <mxGeometry width="50" height="50" relative="1" as="geometry">
            <mxPoint x="405" y="1310" as="sourcePoint" />
            <mxPoint x="455" y="1260" as="targetPoint" />
            <Array as="points">
              <mxPoint x="113" y="1270" />
            </Array>
          </mxGeometry>
        </mxCell>
        <mxCell id="x41GZVK5b2NqUwbjTkxP-16" value="" style="endArrow=none;html=1;rounded=0;entryX=0.602;entryY=-0.01;entryDx=0;entryDy=0;entryPerimeter=0;" parent="1" target="x41GZVK5b2NqUwbjTkxP-12" edge="1">
          <mxGeometry width="50" height="50" relative="1" as="geometry">
            <mxPoint x="179" y="1280" as="sourcePoint" />
            <mxPoint x="105" y="1260" as="targetPoint" />
          </mxGeometry>
        </mxCell>
        <mxCell id="x41GZVK5b2NqUwbjTkxP-17" value="" style="rounded=0;whiteSpace=wrap;html=1;" parent="1" vertex="1">
          <mxGeometry x="65" y="1310" width="190" height="30" as="geometry" />
        </mxCell>
        <mxCell id="x41GZVK5b2NqUwbjTkxP-18" value="" style="endArrow=none;html=1;rounded=0;entryX=0.198;entryY=0.062;entryDx=0;entryDy=0;exitX=0.2;exitY=1.034;exitDx=0;exitDy=0;exitPerimeter=0;entryPerimeter=0;" parent="1" source="x41GZVK5b2NqUwbjTkxP-17" target="x41GZVK5b2NqUwbjTkxP-17" edge="1">
          <mxGeometry width="50" height="50" relative="1" as="geometry">
            <mxPoint x="105" y="1290" as="sourcePoint" />
            <mxPoint x="105" y="1260" as="targetPoint" />
          </mxGeometry>
        </mxCell>
        <mxCell id="x41GZVK5b2NqUwbjTkxP-20" value="" style="endArrow=none;html=1;rounded=0;entryX=0.65;entryY=1.012;entryDx=0;entryDy=0;exitX=0.649;exitY=-0.02;exitDx=0;exitDy=0;exitPerimeter=0;entryPerimeter=0;" parent="1" source="x41GZVK5b2NqUwbjTkxP-17" target="x41GZVK5b2NqUwbjTkxP-17" edge="1">
          <mxGeometry width="50" height="50" relative="1" as="geometry">
            <mxPoint x="113" y="1351" as="sourcePoint" />
            <mxPoint x="113" y="1322" as="targetPoint" />
          </mxGeometry>
        </mxCell>
        <mxCell id="x41GZVK5b2NqUwbjTkxP-21" value="" style="rounded=0;whiteSpace=wrap;html=1;" parent="1" vertex="1">
          <mxGeometry x="65" y="1380" width="700" height="30" as="geometry" />
        </mxCell>
        <mxCell id="x41GZVK5b2NqUwbjTkxP-22" value="" style="rounded=0;whiteSpace=wrap;html=1;" parent="1" vertex="1">
          <mxGeometry x="66.27" y="1440" width="700" height="30" as="geometry" />
        </mxCell>
        <mxCell id="x41GZVK5b2NqUwbjTkxP-23" value="" style="rounded=0;whiteSpace=wrap;html=1;" parent="1" vertex="1">
          <mxGeometry x="65" y="1500" width="700" height="30" as="geometry" />
        </mxCell>
        <mxCell id="x41GZVK5b2NqUwbjTkxP-24" value="Location" style="text;html=1;align=center;verticalAlign=middle;whiteSpace=wrap;rounded=0;" parent="1" vertex="1">
          <mxGeometry x="65" y="1410" width="60" height="30" as="geometry" />
        </mxCell>
        <mxCell id="x41GZVK5b2NqUwbjTkxP-25" value="Category" style="text;html=1;align=center;verticalAlign=middle;whiteSpace=wrap;rounded=0;" parent="1" vertex="1">
          <mxGeometry x="65" y="1470" width="60" height="30" as="geometry" />
        </mxCell>
        <mxCell id="x41GZVK5b2NqUwbjTkxP-26" value="" style="rounded=0;whiteSpace=wrap;html=1;" parent="1" vertex="1">
          <mxGeometry x="65" y="1560" width="700" height="30" as="geometry" />
        </mxCell>
        <mxCell id="x41GZVK5b2NqUwbjTkxP-27" value="Description" style="text;html=1;align=center;verticalAlign=middle;whiteSpace=wrap;rounded=0;" parent="1" vertex="1">
          <mxGeometry x="66.26999999999998" y="1530" width="60" height="30" as="geometry" />
        </mxCell>
        <mxCell id="x41GZVK5b2NqUwbjTkxP-29" value="" style="verticalLabelPosition=bottom;verticalAlign=top;html=1;shape=mxgraph.basic.x" parent="1" vertex="1">
          <mxGeometry x="785" y="1145" width="10" height="10" as="geometry" />
        </mxCell>
        <mxCell id="x41GZVK5b2NqUwbjTkxP-30" value="AM" style="text;html=1;align=center;verticalAlign=middle;whiteSpace=wrap;rounded=0;" parent="1" vertex="1">
          <mxGeometry x="191.75" y="1310" width="60" height="30" as="geometry" />
        </mxCell>
        <mxCell id="x41GZVK5b2NqUwbjTkxP-31" value="year" style="text;html=1;align=center;verticalAlign=middle;whiteSpace=wrap;rounded=0;" parent="1" vertex="1">
          <mxGeometry x="186.27" y="1250" width="60" height="30" as="geometry" />
        </mxCell>
        <mxCell id="x41GZVK5b2NqUwbjTkxP-32" value="month&lt;span style=&quot;color: rgba(0, 0, 0, 0); font-family: monospace; font-size: 0px; text-align: start; text-wrap: nowrap;&quot;&gt;%3CmxGraphModel%3E%3Croot%3E%3CmxCell%20id%3D%220%22%2F%3E%3CmxCell%20id%3D%221%22%20parent%3D%220%22%2F%3E%3CmxCell%20id%3D%222%22%20value%3D%22AM%22%20style%3D%22text%3Bhtml%3D1%3Balign%3Dcenter%3BverticalAlign%3Dmiddle%3BwhiteSpace%3Dwrap%3Brounded%3D0%3B%22%20vertex%3D%221%22%20parent%3D%221%22%3E%3CmxGeometry%20x%3D%22186.75%22%20y%3D%222340%22%20width%3D%2260%22%20height%3D%2230%22%20as%3D%22geometry%22%2F%3E%3C%2FmxCell%3E%3C%2Froot%3E%3C%2FmxGraphModel%3E&lt;/span&gt;" style="text;html=1;align=center;verticalAlign=middle;whiteSpace=wrap;rounded=0;" parent="1" vertex="1">
          <mxGeometry x="112.28" y="1250" width="60" height="30" as="geometry" />
        </mxCell>
        <mxCell id="x41GZVK5b2NqUwbjTkxP-33" value="day" style="text;html=1;align=center;verticalAlign=middle;whiteSpace=wrap;rounded=0;" parent="1" vertex="1">
          <mxGeometry x="55" y="1250" width="60" height="30" as="geometry" />
        </mxCell>
      </root>
    </mxGraphModel>
  </diagram>
</mxfile>
